# xmcd
#
# Track frame offsets:
# 150
# 12372
# 22627
# 39635
# 55325
# 69405
# 83297
# 93997
# 107365
# 120905
# 135770
# 149980
# 160072
# 173822
# 189627
# 202562
# 217427
# 231587
# 244545
# 260942
# 272630
# 290505
# 307372
# 321720
#
# Disc length: 4448 seconds
#
#
# Revision: 0
# Processed by: cddbd v1.5.2PL0 Copyright (c) Steve Scherf et al.
# Submitted via: FreeRIP 2.951 
#
DISCID=5c115e18
DTITLE=Lourenço e Lorival - Dose Dupla Lourenço e Lourival Anel de Noivado
DYEAR=1900
DGENRE=Sertanejo
TTITLE0=Primeira ilusão
TTITLE1=Trem das seis
TTITLE2=Como eu chorei
TTITLE3=Meu sonho de amor
TTITLE4=Não fale mais de mim
TTITLE5=Minha infância
TTITLE6=Capelinha branca
TTITLE7=Mentira maldosa
TTITLE8=Anel de noivado
TTITLE9=O telefone
TTITLE10=Adeus, mãezinha
TTITLE11=Fonte dos namorados
TTITLE12=Mundo moderno
TTITLE13=Menina que chora
TTITLE14=Briguenta
TTITLE15=Menina moça
TTITLE16=Eu gosto tanto dela
TTITLE17=Fracasso
TTITLE18=Condenado por amor
TTITLE19=Remorso na consciência
TTITLE20=O preço da mentira
TTITLE21=Meu grande erro
TTITLE22=Sonho cruel
TTITLE23=O super homem
EXTD=
EXTT0=
EXTT1=
EXTT2=
EXTT3=
EXTT4=
EXTT5=
EXTT6=
EXTT7=
EXTT8=
EXTT9=
EXTT10=
EXTT11=
EXTT12=
EXTT13=
EXTT14=
EXTT15=
EXTT16=
EXTT17=
EXTT18=
EXTT19=
EXTT20=
EXTT21=
EXTT22=
EXTT23=
PLAYORDER=
